<?xml version="1.0" standalone="no"?><!DOCTYPE svg PUBLIC "-//W3C//DTD SVG 1.1//EN" "http://www.w3.org/Graphics/SVG/1.1/DTD/svg11.dtd"><svg t="1495592086074" class="icon" style="" viewBox="0 0 1024 1024" version="1.1" xmlns="http://www.w3.org/2000/svg" p-id="17296" xmlns:xlink="http://www.w3.org/1999/xlink" width="32" height="32"><defs><style type="text/css"></style></defs><path d="M774.4 371.2c-19.2 12.8-19.2 38.4 0 57.6 19.2 19.2 44.8 25.6 64 6.4 19.2-12.8 12.8-38.4-6.4-57.6-12.8-12.8-38.4-12.8-57.6-6.4zM531.2 345.6c-12.8 12.8-12.8 32 0 51.2 12.8 19.2 44.8 25.6 64 12.8 19.2-12.8 12.8-38.4-6.4-57.6-19.2-12.8-44.8-19.2-57.6-6.4zM211.2 300.8c-12.8 12.8-19.2 32-6.4 44.8 12.8 19.2 44.8 25.6 57.6 6.4 12.8-19.2 6.4-38.4-12.8-51.2-12.8-6.4-32-6.4-38.4 0z" fill="" p-id="17297"></path><path d="M844.8 64H179.2C76.8 64 0 134.4 0 230.4v371.2c6.4 6.4 6.4 12.8 12.8 25.6 32 38.4 64 76.8 115.2 89.6 51.2 12.8 160 44.8 160 44.8l70.4 172.8s6.4 32 38.4 32S531.2 832 531.2 832s140.8 38.4 179.2 44.8c32 12.8 108.8 25.6 198.4-38.4 70.4-51.2 108.8-96 115.2-147.2V230.4C1024 134.4 947.2 64 844.8 64zM262.4 422.4c-6.4 0-57.6-12.8-64-32v19.2l-51.2-12.8V172.8l51.2 6.4v83.2s19.2-12.8 44.8-12.8c25.6 0 83.2 25.6 83.2 96 0 64-51.2 76.8-64 76.8z m166.4 19.2l-57.6-12.8V281.6c0-44.8-25.6-51.2-25.6-51.2v-51.2c70.4 19.2 83.2 76.8 83.2 115.2v147.2z m204.8 12.8c-44.8 32-115.2 19.2-153.6-25.6-32-44.8-25.6-96 6.4-128 38.4-32 102.4-32 140.8 6.4 51.2 44.8 51.2 108.8 6.4 147.2z m281.6 64c0 44.8-38.4 76.8-76.8 76.8-44.8 0-44.8-6.4-44.8-6.4v-51.2s0 6.4 32 6.4 25.6-51.2 25.6-51.2-19.2 19.2-44.8 19.2c-64 0-108.8-57.6-108.8-115.2 0-51.2 44.8-83.2 83.2-83.2 38.4 0 70.4 32 70.4 32v-19.2l70.4 6.4c-6.4-6.4-6.4 140.8-6.4 185.6z" fill="" p-id="17298"></path></svg>