<?xml version="1.0" standalone="no"?><!DOCTYPE svg PUBLIC "-//W3C//DTD SVG 1.1//EN" "http://www.w3.org/Graphics/SVG/1.1/DTD/svg11.dtd"><svg t="1495591630503" class="icon" style="" viewBox="0 0 1024 1024" version="1.1" xmlns="http://www.w3.org/2000/svg" p-id="13550" xmlns:xlink="http://www.w3.org/1999/xlink" width="32" height="32"><defs><style type="text/css"></style></defs><path d="M512 0C229.23264 0 0 229.23264 0 512s229.23264 512 512 512 512-229.23264 512-512S794.76736 0 512 0zM395.95008 708.07552c-108.47232 0-196.07552-87.6032-196.07552-196.07552s87.6032-196.07552 196.07552-196.07552c54.23104 0 100.12672 25.02656 137.66656 58.40896l-50.05312 50.05312c-20.85888-25.02656-54.24128-37.53984-87.61344-37.53984-70.92224 0-125.15328 54.23104-125.15328 125.15328 0 70.92224 54.23104 125.15328 125.15328 125.15328 58.40896 0 104.2944-37.53984 120.9856-87.6032H395.95008v-66.75456h191.90784c4.16768 8.3456 4.16768 20.85888 4.16768 29.20448 0 108.47232-87.6032 196.07552-196.07552 196.07552zM825.6512 537.02656h-70.92224v66.75456h-45.88544v-66.75456h-66.75456v-50.06336h66.75456v-66.74432h45.88544v66.75456h70.92224v50.05312z" fill="#DE4330" p-id="13551"></path></svg>