<?xml version="1.0" standalone="no"?><!DOCTYPE svg PUBLIC "-//W3C//DTD SVG 1.1//EN" "http://www.w3.org/Graphics/SVG/1.1/DTD/svg11.dtd"><svg t="1495880590986" class="icon" style="" viewBox="0 0 1024 1024" version="1.1" xmlns="http://www.w3.org/2000/svg" p-id="4557" xmlns:xlink="http://www.w3.org/1999/xlink" width="48" height="48"><defs><style type="text/css"></style></defs><path d="M76.989465 547.909861l737.323838 0L626.03315 729.213114c-4.819772 4.821819-4.819772 12.637832 0 17.460674l37.820374 37.830607c4.820796 4.820796 12.634762 4.820796 17.45658 0l237.018182-228.239238c0.273223-0.230244 0.543376-0.467651 0.801249-0.724501l1.26583-1.26583 36.553521-35.198663c2.579755-2.581802 3.765767-6.022157 3.582595-9.402137 0.189312-3.387144-0.995677-6.836709-3.580548-9.422603l-37.820374-36.46347c-0.24457-0.242524-0.49835-0.465604-0.756223-0.683569L681.310104 234.827283c-4.820796-4.822842-12.634762-4.822842-17.45658 0l-37.820374 37.830607c-4.819772 4.820796-4.819772 12.636808 0 17.460674L812.5481 469.721081 76.991512 469.721081c-6.818289 0-12.343119 5.5279-12.343119 12.346189l0 53.500495c0 6.817266 5.52483 12.346189 12.343119 12.346189L76.989465 547.909861z" p-id="4558" fill="#ffffff"></path></svg>